<?xml version="1.0" encoding="UTF-8"?><svg xmlns="http://www.w3.org/2000/svg" xmlns:xlink="http://www.w3.org/1999/xlink" viewBox="0 0 1619.1 1386.02"><defs><style>.h{fill:none;}.i{fill:#fa634b;}.j{fill:#f2836d;}.k{fill:#f27780;}.l{fill:#eae6e4;}.m{fill:#f4f1ef;}.n{fill:#f5b644;}.o{fill:#ef9a6a;}.p{fill:#fff;}.q{fill:#ffea8f;}.r{fill:#f2b368;}.s{fill:#ef4f56;}.t{fill:#ffc97d;}.u{fill:#ffd3b5;}.v{fill:#ffc0dd;}.w{fill:#ffc559;}.x{fill:#ffa982;}.y,.a`{fill:#f0ab2b;}.aa{fill:#f1676c;}.ab{fill:#740e25;}.ac{fill:#7288b1;}.ad{fill:#97b1d6;}.ae{fill:#a02235;}.af{fill:#670916;}.ag,.ah{fill:#b02e39;}.ai{fill:#c02f39;}.aj{fill:#df4547;}.ak,.al{fill:#d43f51;}.am{fill:#e24f61;}.an,.ao{fill:#212121;}.ap{fill:#9c6f43;}.aq{fill:#82664b;}.ar{fill:#4a6283;}.as,.at{fill:#383838;}.au{fill:#3c4b60;}.av{fill:#8396c0;}.aw{fill:#2e2e47;}.ax,.ay{fill:#2e2e2e;}.b`{fill:#515032;}.ba{opacity:.28;}.ba,.at,.bb,.ay,.bc,.bd,.be,.bf,.bg,.bh,.bi,.ao,.al,.bj,.bk,.bl,.bm,.a`{fill-rule:evenodd;}.ba,.bl{fill:#b83545;}.bb{fill:#2b2a29;}.bc{fill:#5fb1ba;}.bd{fill:#4e9da6;}.be{fill:#4f4f4f;}.bf{fill:#7b9c33;}.bg{fill:#88a940;}.bh{fill:#454545;}.bi{fill:#3f9099;}.bj{fill:#c23c4c;}.bk{fill:#98ba4e;}.bm{fill:#ed5f6f;}.bn{clip-path:url(#d);}.ah{opacity:.3;}.bo{fill:#fa7181;opacity:.45;}</style><clipPath id="d"><path class="h" d="M1383.96,587.85c1.01-158.6-41.79-195.97-65.07-218.85-1.64-1.61-3.37-3.12-5.25-4.44-27.79-19.53-60.79-14.29-76.16-2-71.59,49.2-80.47,160.73-87.7,214.36-4.28,31.81-30.67,157.44-30.67,157.44,0,0,22.41-1.97,49.18,2.62,28.29,4.85,59.39,12.27,59.39,12.27l4.34-49.36,14.1,49.08,149.27-13.76s-11.94-68.75-11.44-147.36Z"/></clipPath></defs><g id="a"/><g id="b"><g id="c"><g><ellipse class="i" cx="1291.37" cy="1246.76" rx="327.73" ry="60.13"/><g><polygon class="l" points="1057.96 1145.28 924.79 1064.97 924.79 643.5 1057.96 723.81 1057.96 1145.28"/><rect class="l" x="969.54" y="203.95" width="32.89" height="583.1"/><rect class="l" x="474.15" y="245.16" width="32.89" height="692.75"/><path class="v" d="M1108.79,488.95c3.06,16.52,46.62,52.94,90.93,59.79,66.52-110.5,25.36-173.88,25.36-173.88l-116.29,114.09Z"/><path class="u" d="M1120.1,492.41l-33.41,37.42s-158.81-69.94-175.7-54.79c-10.58,9.49,16.21,39.08,43.47,67.45,42.02,43.73,100.3,86.67,147.39,69.95,37.12-13.17,63.16-43.58,81.39-78.38-7.06-5.25-9.27-16-16.78-19.9-18.93-9.81-40.28-13.37-46.36-21.76Z"/><path class="aw" d="M727.66,452.12l138.96,58.75s65.47-85.23,104.66-79.2c27.86,4.29,19.32,50.37,2.89,75.73-16.43,25.36-47.59,77.66-109.34,80.49-77.97,3.57-147.17-91.74-137.17-135.77Z"/><path class="i" d="M675.5,322.64s-4.11-11.01,6.21-14.55c22.41-7.7,20.54,6.84,20.54,6.84,0,0,15.8-6.17,25.53-2.58,17.68,6.52,9.87,14.86,15.98,16.7,13.48,4.07,19.9,10.7,22.25,18.19,2.35,7.49-5.56,11.55-3.64,15.83,1.93,4.28,7.06,5.78,7.06,14.55s-11.34,11.55-8.35,19.9c1.12,3.12,4.13,6.51,7.47,9.52,5.31,4.8,4.77,19.34-6.13,21.4-9.9,1.87-19.83-9.11-29.65,7.11-11.91,19.66-60.57,6.85-66.12,5.4-4.84-1.26-5.1-18.13-20.68-13.04-16.97,5.54-21.75-20.32-21.25-28.76,1.05-17.8,17.04-18.7,11.43-20.93-20.18-8.03-6.34-29.06-.88-31.63,7.28-3.42,10.48-2.14,12.62-7.28,2.14-5.14,.64-20.11,11.34-21.61,10.7-1.5,16.26,4.92,16.26,4.92Z"/><path class="x" d="M663.28,396.83s-4.32,.5-8.09-3.12c-3-2.88-3-11.94,0-14.73s6.76-2.63,7.62-2.85c.86-.21,.43-19.47,5.56-28.89,5.14-9.41,7.7-13.91,23.11-12.62,15.41,1.28,23.02,9.84,27.99,16.48,4.97,6.63,5.18,20.11,5.61,26.53s1.91,8.35,3.04,11.82c2.61,8,3.59,13.64,1.02,22.63-2.57,8.99-12.2,17.76-27.18,17.33-14.98-.43-33.76-8.83-38.68-32.58Z"/><path class="i" d="M661.62,375.07s3.64,3.21,6.42,.64,1.39-15.41,3.21-19.79c1.82-4.39,5.99-6.31,7.06-10.48,1.07-4.17,.43-8.88,.43-8.88,0,0,6.1,11.23,18.62,17.33,12.52,6.1,26.75,17.01,29.53,21.29,2.78,4.28,4.17-9.95-1.07-20.65-5.24-10.7-18.28-23.86-30.32-24.18-12.04-.32-23.06-1.71-28.84,5.03-5.78,6.74-15.19,32.74-5.03,39.69Z"/><path class="aw" d="M705.8,397.93c-3.01,0-6.11-.48-6.91-3.85-.14-.59,.22-1.17,.81-1.31,.58-.14,1.17,.22,1.31,.81,.43,1.83,1.84,2.29,6.56,2.13,2.13-.07,2.66-.45,2.78-.67,.18-.32,.19-1.33-1.68-4.53-2.96-5.06-3.53-11.91-3.63-14.63-.08-2.1-.4-4.01-.99-5.82-.82-2.57-.94-2.62-6.31-2.71l-1.82-.03c-6.55-.17-14.42,3.93-14.5,3.97-.53,.28-1.19,.07-1.47-.46-.28-.53-.07-1.19,.46-1.47,.34-.18,8.43-4.36,15.55-4.21l1.81,.03c5.41,.08,7.04,.11,8.35,4.22,.64,2.01,1,4.1,1.09,6.4,.08,1.99,.55,8.84,3.34,13.61,1.67,2.85,2.6,5.07,1.71,6.68-.81,1.48-2.79,1.74-4.61,1.8-.6,.02-1.22,.04-1.84,.04Z"/><path class="p" d="M711.93,405.24s-1.51,1.98-6.22,2.44c-4.71,.46-7.15-3.23-7.15-3.23l13.36,.79Z"/><path class="aw" d="M717.74,376.85c1.46,.09,2.68,1.17,2.98,2.61,.29,1.37,.4,3.13-.4,4.4-1.53,2.4-4.22,.75-5.05-.35-.83-1.1-.34-5.85,.26-6.2,.4-.23,1-.54,2.21-.46Z"/><path class="aw" d="M690.81,377.28c1.68-.03,3.15,1.11,3.51,2.75,.33,1.52,.46,3.39-.48,4.53-1.79,2.17-4.94,.68-5.92-.31s-1.06-5.92-.36-6.24c.48-.22,1.54-.7,3.25-.73Z"/><path class="aw" d="M682.46,380.43c-.31,0-.62-.13-.83-.39-.39-.46-.33-1.15,.13-1.53,.13-.11,3.32-2.75,7.85-2.82,2.4-.03,6.48,.19,6.96,2.08,.15,.58-.21,1.17-.79,1.32-.49,.12-1-.11-1.22-.54-.24-.15-1.43-.73-4.91-.68-3.76,.05-6.45,2.29-6.48,2.31-.2,.17-.45,.26-.7,.26Zm11.99-2.14h0Z"/><path class="aw" d="M712.41,379.32c-.35,0-.69-.17-.9-.48-.34-.49-.21-1.17,.28-1.51,.09-.06,2.13-1.44,5.37-1.57,3.25-.13,5.32,1.08,5.41,1.13,.52,.31,.68,.98,.37,1.49-.31,.52-.98,.68-1.49,.37-.01,0-1.62-.93-4.2-.82-2.59,.11-4.22,1.18-4.23,1.2-.19,.13-.4,.19-.61,.19Z"/><path class="aw" d="M722.74,368.68c-.24,0-.48-.08-.68-.24-.83-.67-5.89-.91-10.08-.71-.63,.02-1.11-.44-1.14-1.04-.03-.6,.44-1.11,1.04-1.14,2.23-.1,9.65-.33,11.54,1.18,.47,.38,.55,1.06,.17,1.53-.22,.27-.53,.41-.85,.41Z"/><path class="j" d="M691.52,390.47s-10.34-2.59-13.18,.78c-2.84,3.36,8.66,6.2,14.35,5.3,5.69-.9,1.44-5.56-1.16-6.08Z"/><g><rect class="ap" x="838.82" y="309.49" width="169.36" height="242.38" rx="13.92" ry="13.92" transform="translate(374.9 1289.38) rotate(-82.43)"/><rect class="ap" x="992.23" y="403.19" width="44.19" height="79.11" rx="6.48" ry="6.48" transform="translate(441.79 1389.89) rotate(-82.43)"/><path class="aw" d="M1044.2,470.1s-.1,0-.15,0l-65.57-8.72c-4.14-.55-7.06-4.36-6.51-8.5l4.11-30.95c.27-2,1.3-3.78,2.9-5.01,1.61-1.23,3.59-1.76,5.6-1.49l65.57,8.72c.6,.08,1.01,.63,.94,1.22-.08,.6-.62,1.01-1.22,.94l-65.57-8.72c-1.43-.19-2.84,.19-3.99,1.06-1.14,.88-1.88,2.14-2.07,3.57l-4.11,30.95c-.39,2.95,1.69,5.66,4.64,6.06l65.57,8.72c.6,.08,1.01,.63,.94,1.22-.07,.55-.54,.95-1.08,.95Z"/><path class="q" d="M1007.96,441.91c-.83,6.24-6.56,10.63-12.81,9.8-6.24-.83-10.63-6.56-9.8-12.81,.83-6.24,6.56-10.63,12.81-9.8,6.24,.83,10.63,6.56,9.8,12.81Z"/><path class="p" d="M1017.19,516.97s-.1,0-.15,0l-12.95-1.72c-.6-.08-1.01-.63-.94-1.22,.08-.6,.62-1.01,1.22-.94l12.95,1.72c.6,.08,1.01,.63,.94,1.22-.07,.55-.54,.95-1.08,.95Zm-25.9-3.44s-.1,0-.15,0l-12.95-1.72c-.6-.08-1.01-.63-.94-1.22,.08-.6,.62-1.01,1.22-.94l12.95,1.72c.6,.08,1.01,.63,.94,1.22-.07,.55-.54,.95-1.08,.95Zm32.52-3.11s-.1,0-.15,0c-.6-.08-1.01-.63-.94-1.22l1.72-12.95c.08-.6,.62-1.01,1.22-.94,.6,.08,1.01,.63,.94,1.22l-1.72,12.95c-.07,.55-.54,.95-1.08,.95Zm-58.43-.33s-.1,0-.15,0l-12.95-1.72c-.6-.08-1.01-.63-.94-1.22,.08-.6,.62-1.01,1.22-.94l12.95,1.72c.6,.08,1.01,.63,.94,1.22-.07,.55-.54,.95-1.08,.95Zm-25.9-3.44s-.1,0-.15,0l-12.95-1.72c-.6-.08-1.01-.63-.94-1.22,.08-.6,.63-1.01,1.22-.94l12.95,1.72c.6,.08,1.01,.63,.94,1.22-.07,.55-.54,.95-1.08,.95Zm-25.9-3.44s-.1,0-.15,0l-12.95-1.72c-.6-.08-1.01-.63-.94-1.22,.08-.6,.63-1.01,1.22-.94l12.95,1.72c.6,.08,1.01,.63,.94,1.22-.07,.55-.54,.95-1.08,.95Zm-25.9-3.44s-.1,0-.15,0l-12.95-1.72c-.6-.08-1.01-.63-.94-1.22s.63-1.01,1.22-.94l12.95,1.72c.6,.08,1.01,.63,.94,1.22-.07,.55-.54,.95-1.08,.95Zm-25.9-3.44s-.1,0-.15,0l-12.95-1.72c-.6-.08-1.01-.63-.94-1.22,.08-.6,.63-1.01,1.22-.94l12.95,1.72c.6,.08,1.01,.63,.94,1.22-.07,.55-.54,.95-1.08,.95Zm-25.9-3.44s-.1,0-.15,0l-12.95-1.72c-.6-.08-1.01-.63-.94-1.22s.62-1.01,1.22-.94l12.95,1.72c.6,.08,1.01,.63,.94,1.22-.07,.55-.54,.95-1.08,.95Zm-25.9-3.44s-.1,0-.15,0l-2.05-.27,1.74-13.06c.08-.6,.63-1.01,1.22-.94,.6,.08,1.01,.63,.94,1.22l-1.45,10.91c.54,.13,.9,.64,.83,1.2-.07,.55-.54,.95-1.08,.95Zm2.35-25.06s-.1,0-.15,0c-.6-.08-1.01-.63-.94-1.22l1.72-12.95c.08-.6,.62-1.01,1.22-.94,.6,.08,1.01,.63,.94,1.22l-1.72,12.95c-.07,.55-.54,.95-1.08,.95Zm3.44-25.9s-.1,0-.15,0c-.6-.08-1.01-.63-.94-1.22l1.72-12.95c.08-.6,.62-1.01,1.22-.94,.6,.08,1.01,.63,.94,1.22l-1.72,12.95c-.07,.55-.54,.95-1.08,.95Zm3.44-25.9s-.1,0-.15,0c-.6-.08-1.01-.63-.94-1.22l1.72-12.95c.08-.6,.63-1.01,1.22-.94,.6,.08,1.01,.63,.94,1.22l-1.72,12.95c-.07,.55-.54,.95-1.08,.95Zm219.58-14.78s-.1,0-.15,0c-.6-.08-1.01-.63-.94-1.22l1.72-12.95c.08-.6,.62-1.01,1.22-.94,.6,.08,1.01,.63,.94,1.22l-1.72,12.95c-.07,.55-.54,.95-1.08,.95Zm-216.14-11.12s-.1,0-.15,0c-.6-.08-1.01-.63-.94-1.22l1.72-12.95c.08-.6,.62-1.01,1.22-.94,.6,.08,1.01,.63,.94,1.22l-1.72,12.95c-.07,.55-.54,.95-1.08,.95Zm213.37-10.02s-.1,0-.15,0l-12.95-1.72c-.6-.08-1.01-.63-.94-1.22,.08-.6,.62-1.01,1.22-.94l12.95,1.72c.6,.08,1.01,.63,.94,1.22-.07,.55-.54,.95-1.08,.95Zm-25.9-3.44s-.1,0-.15,0l-12.95-1.72c-.6-.08-1.01-.63-.94-1.22,.08-.6,.62-1.01,1.22-.94l12.95,1.72c.6,.08,1.01,.63,.94,1.22-.07,.55-.54,.95-1.08,.95Zm-25.9-3.44s-.1,0-.15,0l-12.95-1.72c-.6-.08-1.01-.63-.94-1.22,.08-.6,.63-1.01,1.22-.94l12.95,1.72c.6,.08,1.01,.63,.94,1.22-.07,.55-.54,.95-1.08,.95Zm-25.9-3.44s-.1,0-.15,0l-12.95-1.72c-.6-.08-1.01-.63-.94-1.22,.08-.6,.63-1.01,1.22-.94l12.95,1.72c.6,.08,1.01,.63,.94,1.22-.07,.55-.54,.95-1.08,.95Zm-25.9-3.44s-.1,0-.15,0l-12.95-1.72c-.6-.08-1.01-.63-.94-1.22,.08-.6,.63-1.01,1.22-.94l12.95,1.72c.6,.08,1.01,.63,.94,1.22-.07,.55-.54,.95-1.08,.95Zm-106.32-2.11s-.1,0-.15,0c-.6-.08-1.01-.63-.94-1.22l1.71-12.9,2.21,.29c.6,.08,1.01,.63,.94,1.22-.08,.6-.62,1.02-1.22,.94h-.06l-1.43,10.73c-.07,.55-.54,.95-1.08,.95Zm80.41-1.34s-.1,0-.15,0l-12.95-1.72c-.6-.08-1.01-.63-.94-1.22,.08-.6,.63-1.01,1.22-.94l12.95,1.72c.6,.08,1.01,.63,.94,1.22-.07,.55-.54,.95-1.08,.95Zm-25.9-3.44s-.1,0-.15,0l-12.95-1.72c-.6-.08-1.01-.63-.94-1.22,.08-.6,.62-1.01,1.22-.94l12.95,1.72c.6,.08,1.01,.63,.94,1.22-.07,.55-.54,.95-1.08,.95Zm-25.9-3.44s-.1,0-.15,0l-12.95-1.72c-.6-.08-1.01-.63-.94-1.22,.08-.6,.62-1.01,1.22-.94l12.95,1.72c.6,.08,1.01,.63,.94,1.22-.07,.55-.54,.95-1.08,.95Z"/></g><path class="j" d="M728.05,389.23s-10.34-2.59-13.18,.78c-2.84,3.36,8.66,6.2,14.35,5.3,5.69-.9,1.44-5.56-1.16-6.08Z"/><path class="aw" d="M639.98,629.69s-32.85,62.37-37.95,125.54c-1.56,19.27-69.71,415.34-69.71,415.34,0,0,4.9,8.01,44.93,11.49,56.36,4.9,75.37-7.77,75.37-7.77,0,0,18.69-172.26,48.9-309.47l31.15,302.54s22.1,14.7,55.17,14.7c37.08,0,56.7-14.7,56.7-14.7,0,0-5.33-59.81-11.46-130.72-1.48-17.06,4.7-37.06,3.2-54.72-6.83-80.09-21.02-157.14-21.33-172.54-2.54-129.7-48.84-176.7-48.84-176.7l-126.13-2.98Z"/><path class="x" d="M706.5,450.64c6.19-3.31,8.23-7.38,8.58-10.91-4.17-2.76-7.52-6.16-11.28-13.99-7.68-15.97-32.33-25.39-32.33-25.39,0,0,10.37,18.79,8.5,27.53-.96,4.51-4.19,8.55-8.74,12.66,5.59,4.22,23.44,16.43,35.27,10.09Z"/><path class="aw" d="M745.87,455.72c-6.02-6.35-21.05-10.3-25.2-12.67-.37-.21-.73-.41-1.08-.61-1.63-.93-3.12-1.78-4.52-2.71-.34,3.53-2.39,7.6-8.58,10.91-11.83,6.33-29.68-5.87-35.27-10.09-8.35,7.56-28.17,22.69-37.73,35.88-22.89,31.59-22.53,95.53-21.63,123.84,.89,27.98-13.93,143.07-13.93,143.07,0,0,195.4-16.86,208.44-36.97,7.67-11.84-32.93-123.78-32.93-123.78,0,0-8.51-106.76-27.57-126.87Z"/><polygon class="p" points="666.67 444.52 678.65 431.57 700.1 445.96 708.12 433.15 719.57 439.73 711.93 457.03 701.17 454.35 691.78 460.78 666.67 444.52"/><path class="p" d="M683.85,450.6s10.31,24.59,13.04,33.04c4.24,13.15,13.57,53.58,13.57,53.58,0,0,2.7-39.5,2.5-52.69-.12-8.05-2.5-32.11-2.5-32.11l-26.61-1.83Z"/><path class="aw" d="M639.37,493.92l138.96,58.75s65.47-85.23,104.66-79.2c27.86,4.29,19.32,50.37,2.89,75.73-16.43,25.36-47.59,77.66-109.34,80.49-77.97,3.57-147.17-91.74-137.17-135.77Z"/><path class="x" d="M878.47,508.02s8.85-9.6,12.17-9.73c3.32-.13,22.44,.46,28.1-1.93,5.66-2.39,22.49-16.97,21.39-17.41-1.1-.45-3.04,.56-3.04,.56,0,0,6.83-5.07,6.83-6.95l-1.4-1.59s1.14-2.18-.26-3.77c-1.4-1.59-17.37,7.28-17.72,6.88s14.11-7.24,12.52-9.84-28.09,12.48-28.66,9.69c-.57-2.79,11.47-11.04,10.19-16.5-1.28-5.46-6.13,1.86-8.78,4.2-2.65,2.33-19.73,12.89-23.99,16.87-4.26,3.98-20.28,3.96-20.48,9.08-.2,5.12,9.99,22.04,13.13,20.45Z"/><polygon class="l" points="1078.87 216.2 359.74 374.29 359.74 158.09 1078.87 0 1078.87 216.2"/><polygon class="l" points="1057.93 1144.96 463.78 1275.58 463.78 854.11 1057.93 723.49 1057.93 1144.96"/><polygon class="m" points="463.78 1275.88 330.62 1195.56 330.62 774.09 463.78 854.41 463.78 1275.88"/><g><path class="aq" d="M328.2,1027.76s35.13-44.71,39.01-47.11c9.42-5.84,24.87-2.45,25.82,14.51s-12.63,18.09-14.89,17.15-2.64-3.4-.75-5.09,3.96,.19,6.03-5.27c2.07-5.46,1.32-13.19-2.26-14.7-3.58-1.51-12.25,5.28-15.26,8.29s-29.59,37.5-29.59,37.5l-8.1-5.28Z"/><polygon class="o" points="0 1185.41 64.43 1097.33 195.95 1048.81 135.36 1135.47 0 1185.41"/><polygon class="r" points="199.79 1316.6 64.43 1366.53 64.43 1097.33 199.79 1047.39 199.79 1316.6"/><rect class="o" x="199.79" y="1047.39" width="230.36" height="269.21"/><path class="aw" d="M244.82,1100s53.11-92.4,58.88-92.78c5.77-.38,9.58,24.94,9.58,24.94,0,0,24.83-15.83,34.93-10.18s-5.29,19.82-5.29,19.82c0,0,29.81-13.26,37.03-6.63,7.21,6.63-137.53,146.44-158.21,144.64-20.68-1.8,23.08-79.82,23.08-79.82Z"/><rect class="t" x="64.43" y="1097.33" width="230.36" height="269.2"/><polygon class="r" points="430.15 1316.6 294.79 1366.53 294.79 1097.33 430.15 1047.39 430.15 1316.6"/><polygon class="aw" points="148.79 1125.56 125.43 1026.44 224.93 1013.35 262.81 1126.98 148.79 1125.56"/><polygon class="r" points="64.43 1097.33 46.6 1173.37 255.87 1173.37 294.79 1097.33 64.43 1097.33"/><polygon class="t" points="294.79 1097.33 358.27 1170.34 481.85 1112.01 430.15 1047.39 294.79 1097.33"/><polygon class="aw" points="308.37 1315.98 308.37 1353.36 346.01 1339.28 346.01 1304.46 341.65 1305.99 341.91 1335.44 338.58 1336.72 338.07 1310.6 332.49 1312.39 332.49 1339.02 328.85 1340.56 328.85 1314.04 323.73 1315.98 324.5 1342.1 320.28 1343.89 320.28 1317.52 314 1319.82 314 1346.19 311.19 1346.96 311.19 1314.44 308.37 1315.98"/><polygon class="aw" points="360.75 1334.27 371.3 1330.59 371.3 1306.48 376.28 1304.74 364 1289.79 353.72 1312.74 360.17 1310.48 360.75 1334.27"/><polygon class="aw" points="386 1325.04 396.55 1321.36 396.55 1297.25 401.53 1295.51 389.25 1280.56 378.97 1303.5 385.42 1301.25 386 1325.04"/></g><path class="aw" d="M1179.14,440.4s-21.8,34.91-32.67,72.95-10.51,74.64-10.51,74.64l30.79,2.16,12.39-149.75Z"/><path class="u" d="M1307.11,992.73c27.32,119.55,43.62,232.04,43.62,232.04h46.8s-3.6-134.23-9.91-256.26c-37.3,18.16-49.18,20.16-80.52,24.21Z"/><path class="u" d="M1181.58,991.49c16.08,112.1,21.88,233.28,21.88,233.28h46.25l.83-27.24,6.32-194.88c-40.37-46.4-60.6-44.82-75.28-11.16Z"/><path class="aw" d="M1385.68,779.76c-5.06-31-26.96-120.8-26.96-120.8l-196.8,13.62s-7.81,23.7,3.96,163.11c1.3,15.37,5.6,82.3,10.25,156.43,14.99,4.39,52.87,10.85,90.1,10.55l-2.62-151.13c9.17,54,15.4,92.61,22.99,151.14,31.33-4.06,81.62-11.2,118.92-29.35-4.46-86.28-16.2-171.27-19.84-193.57Z"/><path class="aw" d="M1119.12,734.36s23.03,21.36,74.02,28.79c50.99,7.43,197.24,4.63,202.26-27.93,0,0-145.69-18.52-179.55-13.36-33.86,5.16-96.73,12.5-96.73,12.5Z"/><path class="v" d="M1383.96,587.85c1.01-158.6-41.79-195.97-65.07-218.85-1.64-1.61-3.37-3.12-5.25-4.44-27.79-19.53-60.79-14.29-76.16-2-71.59,49.2-80.47,160.73-87.7,214.36-4.28,31.81-30.67,157.44-30.67,157.44,0,0,22.41-1.97,49.18,2.62,28.29,4.85,59.39,12.27,59.39,12.27l4.34-49.36,14.1,49.08,149.27-13.76s-11.94-68.75-11.44-147.36Z"/><path class="aw" d="M1321.72,288.73l3.81,4.66s7.04,9.75-2.76,13.15c-9.8,3.4-146.94-11.09-112.24-44.27,0,0,22.99-5.6,39.26-2.18,16.27,3.42,71.93,28.64,71.93,28.64Z"/><path class="u" d="M1305.39,360.81c-11.19-14.8-11-53.79-11-53.79,0,0-20.2,4.4-31.74,25.74-1.27,2.35-3.69,20.29-16.69,27.94l59.43,.11Z"/><path class="aw" d="M1256.12,350.01c6.64-.1,19.55-.93,27.92-5.61,11.68-6.52,10.05-19.66,10.05-19.66,0,0-6.11,2.68-14.53,7.57-4.45,2.58-12.2,4.52-18.52,5.78-.98,3.32-2.47,7.7-4.91,11.92Z"/><path class="u" d="M1227.65,279.07s-3.48-2.38-5.59,.13-2.21,16.51,.84,17c3.06,.49,7.93-13.38,4.75-17.13Z"/><path class="u" d="M1297.08,297.78c-.12-2.33,1.21-12.31,1.84-16.83,1.43,1.17,3.67,.4,6.99,1.75,5.81,2.36,4.56,11.93,1.88,17.24s-9.96,4.15-9.96,4.15c0,0-.58-3.27-.74-6.31Z"/><path class="u" d="M1297.82,304.09s-.58-3.27-.74-6.31c-.12-2.33,1.21-12.31,1.84-16.83-.48-.39-.82-.91-1.03-1.62-.26-.87-.32-2.03-.14-3.67,0,0,4.36-18.22-7.39-29.85-11.75-11.63-45.75-11.54-55.67,1.37-9.92,12.91-8.11,28.95-10.2,37.65-.95,3.97-5.98,28.88-5.43,34.61,1.24,12.9,15.54,24.61,36.37,26.38,19.95,1.69,33.06-8.96,37.07-17.05,4-8.09,5.33-24.69,5.33-24.69Z"/><path class="p" d="M1257.26,314.22s-8.55,2.64-19.13-1.65c0,0-2.71,6.55,4.97,9.54s14.16-7.89,14.16-7.89Z"/><path class="aw" d="M1272.12,279.31c-.13,0-.27-.02-.4-.08-.07-.03-6.61-2.57-10.81-2.01-.59,.08-1.14-.34-1.22-.94-.08-.6,.34-1.14,.94-1.22,4.75-.62,11.59,2.03,11.88,2.15,.56,.22,.84,.85,.62,1.41-.17,.43-.58,.69-1.01,.69Z"/><path class="aw" d="M1273.35,288.85c-.61,0-1.82-.41-4.96-2.14-4.09-2.26-9.74-1.36-9.8-1.35-.59,.1-1.15-.3-1.25-.89-.1-.59,.3-1.15,.89-1.25,.26-.04,6.45-1.04,11.21,1.59,2.5,1.38,3.47,1.74,3.78,1.83,.1-.02,.2-.03,.3-.02,.6,.05,1.05,.57,1,1.17-.03,.37-.27,.73-.6,.9-.15,.08-.3,.16-.58,.16Z"/><path class="aw" d="M1261.17,284.51s-3.15,.63-2.22,5.08c.93,4.45,4.56,4.6,6.55,2.47,1.81-1.93,2.37-4.65,1.27-5.81-.8-.85-2.4-2.58-5.6-1.74Z"/><path class="aw" d="M1228.96,286.32c-.14,0-.29-.03-.43-.09-.56-.23-.81-.9-.58-1.46,.17-.41,1-1.83,4.81-2.98,5.2-1.56,9.05,.56,9.21,.65,.52,.3,.71,.96,.42,1.48-.29,.52-.96,.71-1.48,.42h0c-.13-.07-3.24-1.74-7.52-.46-2.87,.86-3.45,1.78-3.46,1.78-.17,.41-.55,.65-.97,.65Z"/><path class="aw" d="M1235.88,283.01s2.46,1.1,.83,4.98c-1.63,3.88-4.65,3.41-5.87,1.14-1.11-2.06-1.04-4.61,.09-5.48,.83-.64,2.48-1.94,4.94-.64Z"/><path class="ap" d="M1248.65,256.92s6.23,8.36,14.38,12.08,19.92,7.64,22.5,9.91c2.58,2.27,.21,15.8,4.75,18.22,4.54,2.43,11.36-14.85,12.49-18.91s7.54-5.51-.52-10.98c-8.05-5.47-54.27-14.45-53.61-10.32Z"/><path class="x" d="M1234.77,292.9s-10.25-1.55-12.49,1.83,9.16,5.07,14.47,3.75c5.31-1.32,.59-5.31-1.98-5.58Z"/><path class="x" d="M1270.14,298.63s-9.62-4.1-12.74-1.48c-3.12,2.63,7.59,7.16,13.15,7.28s2.03-4.89-.42-5.8Z"/><g class="bn"><path class="b`" d="M1282.01,376.18c-14.6-10.88-68.1-22.99-94.95-.85-26.85,22.14-23.42,51.24-23.42,51.24l-23.34,46.91,4.5,2.58,23.34-46.91s4.75,.65,11.01,.09c2.04-.18,5.59-2.14,10.19-4.98,.13-3.44,4.98-16.46,4.98-16.46l2.67,7.69c.53,1.53,2.59,2.3,3.92,1.47,1.25-.78,2.37-1.46,4.53-2.76,1.47-.88,2.01-7.93,2.01-7.93,0,0,4.33,4.26,5.27,3.74,3.06-1.68,6.21-3.29,9.41-4.75,.89-.41,1.04-5.72,1.94-6.1,.89-.38,2.51,4.18,3.4,3.83,7.17-2.8,14.22-3.68,20.84-3.7,1.27,0,3.99-5.26,3.99-5.26,0,0,1.45,5.41,2.27,5.46,10.61,.68,19.7,2.78,25.75,1.13,10.81-2.94,17.41-12.53,17.41-12.53,0,0-1.11-1.03-15.71-11.91Z"/><path class="b`" d="M1249.21,557.64s-16.59-4.4-27.76-1.92c-11.17,2.48-29.4,19.37-29.4,19.37l2.93,11.49-5.92-8.46-30.9,31.91,7.78,12.52-11.62-8.87c-8.02,7.95-18.11,36.43-20.06,42.11l-38.04,36.83,4.87,1.95,36.38-37.16c16.88,2.49,28.99-1.94,28.99-1.94l-5.07-9.08,8.67,6.9s7.25-4.61,13.69-8.84c6.44-4.24,16.36-16.18,16.36-16.18l-1.64-7.03,7.21,6.66,7.33-9.86-7.09-8.95,9.45,6.32c8.22-7.96,16.53-18.41,16.53-18.41l-4.01-9.41,8.3,6.08,13.01-36.01Z"/><path class="b`" d="M1288.93,633.09s-5.15,13.82-3.96,23.58,14.11,26.76,14.11,26.76l10.07-1.55-7.73,4.35,24.71,29.09,11.35-5.61-8.56,9.19c6.13,7.53,29.65,18.53,34.34,20.68l28.32,35.62,2.07-4-28.75-34.22c3.54-14.23,.76-24.96,.76-24.96l-8.19,3.58,6.62-6.84s-3.34-6.59-6.42-12.45c-3.08-5.86-12.48-15.35-12.48-15.35l-6.15,.81,6.3-5.61-7.82-7.1-8.25,5.32,6.19-7.56c-6.12-7.69-14.37-15.68-14.37-15.68l-8.38,2.65,5.9-6.59-29.72-14.14Z"/><path class="b`" d="M1232.96,482.51c14.91-12.09,71.76-22.58,102.54,6.53,30.78,29.11,29.39,64.3,29.39,64.3l28.96,59.02-4.66,2.79-28.96-59.02s-5.09,.41-11.89-.77c-2.21-.38-6.21-3.05-11.41-6.88-.41-4.2-6.69-20.45-6.69-20.45l-2.27,9.16c-.45,1.82-2.61,2.6-4.12,1.48-1.41-1.05-2.67-1.97-5.11-3.72-1.65-1.19-2.8-9.83-2.8-9.83,0,0-4.34,4.84-5.4,4.14-3.44-2.29-6.97-4.51-10.55-6.54-.99-.57-1.58-7.05-2.58-7.59-.99-.53-2.38,4.89-3.37,4.4-7.97-3.98-15.66-5.61-22.82-6.17-1.38-.11-4.73-6.73-4.73-6.73,0,0-1.14,6.48-2.02,6.48-11.41-.01-21.07,1.81-27.74-.67-11.92-4.44-19.81-16.66-19.81-16.66,0,0,1.11-1.17,16.03-13.26Z"/></g><path class="aw" d="M1325.54,293.39l-10.84-28.08-.46-29.3s-26.62-42.63-58.09-24.4l-20.97,28.34-24.65,22.31s62.82-.63,115,31.12Z"/><path class="aw" d="M1243.92,305.42c-4.14,0-5.62-2.6-5.7-2.74-1.21-1.79-1.59-3.37-1.13-4.76,.7-2.1,3.1-2.92,5.02-3.58,.74-.26,1.51-.52,1.83-.76,1.52-1.14,2.25-4.81,1.71-8.54q-1.17-8.06-3.38-8.27c-.33-.03-.69-.06-1.09-.11-4.01-.48-11.98-.19-12.06-.19-.63,.01-1.11-.45-1.13-1.05-.02-.6,.45-1.11,1.05-1.13,.33-.01,8.22-.3,12.4,.2,.38,.05,.72,.08,1.03,.11,3.91,.37,4.02,1.1,5.32,10.09,.57,3.93,0,8.72-2.55,10.63-.59,.45-1.45,.74-2.43,1.08-1.47,.51-3.3,1.14-3.66,2.22-.29,.86,.34,2.07,.93,2.93,.11,.19,1.77,2.87,7.34,1.06,.57-.18,1.19,.13,1.37,.7,.19,.57-.13,1.19-.7,1.37-1.62,.53-3,.73-4.17,.73Z"/><path class="aw" d="M1232.03,700.98c-.57,0-1.05-.45-1.09-1.03-.01-.2-1.14-20.61,.47-45.03,.92-13.97,5.06-54.09,8.72-89.5,2.78-26.97,5.41-52.44,6.14-61.76,.83-10.62,3.07-23.94,5.43-38.04,2.88-17.18,5.86-34.95,6.17-47.75,.55-22.93,1.8-53.33,1.82-53.63,.02-.6,.51-1.08,1.13-1.04,.6,.02,1.07,.53,1.04,1.13-.01,.3-1.26,30.69-1.82,53.6-.31,12.96-3.31,30.81-6.2,48.06-2.36,14.05-4.58,27.33-5.41,37.85-.73,9.35-3.36,34.83-6.14,61.82-3.65,35.38-7.79,75.49-8.71,89.42-1.61,24.28-.48,44.56-.47,44.76,.03,.6-.42,1.11-1.03,1.15-.02,0-.04,0-.06,0Z"/><path class="v" d="M1261.27,357.98s36.76-7.61,38.19-9.29l-1.32-5.74,11.88,21.05s-38.02,16.17-38.13,15.66c-.1-.52-12.1-12.72-12.1-12.72l-17.74,4.77,7.14-17.03,6.63-4.19,5.44,7.49Z"/><path class="aw" d="M1332.31,550.43c23.18-57.11,13.85-97.23,13.85-97.23-24.55,56.49-111.3,155.07-148.61,164.49-22.39,5.65-42.17,1.65-54.41-2.46-1.69,8.91-3.56,18.55-5.5,28.35,16.31,8.83,52.64,22.3,81.37,15.38,50.99-12.29,90.11-51.42,113.3-108.53Z"/><g><path class="aw" d="M1129.48,1243.13c2.31-6.47,16.65-7.4,30.06-11.1,13.41-3.7,19.88-12.95,26.36-19.88,6.47-6.94,16.65-5.55,16.65-5.53,0,0,3.24,2.76,11.1,6.46,7.86,3.7,5.55,8.32,16.65,6.01,11.1-2.31,17.57,0,17.57,0l5.09,1.39c2.42,.66,2.95,6.85,2.65,13.56-7.92,3.59-25.11,10.83-36.87,11.87-15.72,1.39-68.44,4.62-76.76,2.31-3.83-1.06-8.65-2.78-12.72-4.32,.07-.26,.15-.51,.24-.77Z"/><path class="l" d="M1141.97,1248.22c8.32,2.31,61.04-.92,76.76-2.31,11.76-1.04,28.96-8.29,36.87-11.87-.33,7.42-1.68,15.48-2.65,17.42-1.85,3.7-18.03,5.55-26.36,6.94-8.32,1.39-87.9,1.35-91.6,.42-3.55-.89-7.5-8.57-5.75-14.91,4.08,1.54,8.89,3.25,12.72,4.32Z"/></g><g><path class="aw" d="M1468.28,1244.19c-2.31-6.47-16.65-7.4-30.06-11.1s-19.88-12.95-26.36-19.88c-6.47-6.94-16.65-5.55-16.65-5.53,0,0-3.24,2.76-11.1,6.46-7.86,3.7-5.55,8.32-16.65,6.01-11.1-2.31-17.57,0-17.57,0l-5.09,1.39c-2.42,.66-2.95,6.85-2.65,13.56,7.92,3.59,25.11,10.83,36.87,11.87,15.72,1.39,68.44,4.62,76.76,2.31,3.83-1.06,8.65-2.78,12.72-4.32-.07-.26-.15-.51-.24-.77Z"/><path class="l" d="M1455.8,1249.27c-8.32,2.31-61.04-.92-76.76-2.31-11.76-1.04-28.96-8.29-36.87-11.87,.33,7.42,1.68,15.48,2.65,17.42,1.85,3.7,18.03,5.55,26.36,6.94,8.32,1.39,87.9,1.35,91.6,.42,3.55-.89,7.5-8.57,5.75-14.91-4.08,1.54-8.89,3.25-12.72,4.32Z"/></g><path class="v" d="M1217.47,519.48c3.06,16.52,46.62,52.94,90.93,59.79,66.52-110.5,25.36-173.88,25.36-173.88l-116.29,114.09Z"/><path class="aw" d="M1288.11,545.78c-9.96-11.23-55.43-27.71-62.31-26.45-6.88,1.27-1.27,11.23-1.27,11.23,0,0,.3,1.02,.85,2.7,15,17.78,48.77,40.72,83.01,46.02,0,0-10.32-22.27-20.29-33.5Z"/><path class="u" d="M1012.44,486.1c3.21-.08,4.64-.54,2.99-1.75-1.65-1.21-25.96-5.15-26.52-8.6-.56-3.45,20.59-3.22,25.1-3.41,4.52-.19,17.73,8.27,22.05,14.85,2.6,3.96,5.66,8.63,8.06,10.78,29.5,26.38-6.45,38.1-9.25,36.38-4.07-2.5-6.65-3.67-10.77-6.54-5.9-4.1-5.15-7.42-10.81-11.05-5.66-3.62-24.51-7.27-25.66-10.85-1.15-3.58,14.42-4.24,14.42-4.24,0,0-16.83-3.51-19.41-7.1-2.57-3.59,4.46-5.54,4.46-5.54,0,0-10.57-.47-7.67-4.95,2.9-4.48,29.8,2.1,33,2.02Z"/><path class="u" d="M1228.78,522.94l-33.41,37.42s-158.81-69.94-175.7-54.79c-10.58,9.49,16.21,39.08,43.47,67.45,42.02,43.73,100.3,86.67,147.39,69.95,37.12-13.17,63.16-43.58,81.39-78.38-7.06-5.25-9.27-16-16.78-19.9-18.93-9.81-40.28-13.37-46.36-21.76Z"/><path class="p" d="M1282.45,857.24c-.15,0-.3-.03-.45-.1-15.87-7.16-44.18-8.32-44.47-8.33-.6-.02-1.07-.53-1.05-1.13,.02-.6,.52-1.09,1.13-1.05,1.18,.04,29.02,1.18,45.28,8.52,.55,.25,.79,.89,.55,1.44-.18,.4-.58,.64-.99,.64Z"/><path class="p" d="M1290.28,850.17c-.12,0-.25-.02-.37-.07l-67.11-24.45c-.57-.21-.86-.83-.65-1.4,.21-.56,.83-.85,1.4-.65l67.11,24.45c.57,.21,.86,.83,.65,1.4-.16,.44-.58,.72-1.02,.72Z"/><path class="p" d="M1381.85,980.86c-.57,0-1.05-.44-1.09-1.02-.02-.37-2.52-37.64-10-61.14-4.48-14.1-4.58-30.46-4.7-49.41-.08-13.72-.17-29.26-1.87-47-4.01-41.96-8.07-55.27-8.11-55.4-.18-.57,.14-1.18,.71-1.36,.58-.18,1.18,.14,1.36,.71,.17,.53,4.16,13.57,8.2,55.85,1.7,17.84,1.8,33.43,1.88,47.19,.12,19.54,.21,34.98,4.59,48.76,7.56,23.76,10.08,61.29,10.1,61.66,.04,.6-.42,1.12-1.02,1.16-.02,0-.05,0-.07,0Z"/><path class="p" d="M603.36,743.94c-.56,0-1.04-.43-1.08-1-.05-.6,.39-1.13,.99-1.18,.85-.07,85.26-7.21,97.17-10.88,9.42-2.91,14.95-30.89,16.29-41.43,.07-.57,.58-.98,1.15-.95,.58,.04,1.02,.52,1.02,1.1,0,.26-.14,25.93,7.85,33.41,1.52,1.42,3.18,2.04,5.11,1.9,8.19-.62,14.7-1.85,22.24-3.29,5.5-1.05,11.72-2.23,19.32-3.27,17.13-2.34,28.12-9.32,28.22-9.39,.51-.33,1.18-.18,1.5,.32,.33,.51,.18,1.18-.32,1.5-.46,.3-11.47,7.31-29.11,9.72-7.54,1.03-13.47,2.16-19.21,3.25-7.6,1.45-14.17,2.7-22.48,3.32-2.52,.2-4.8-.65-6.76-2.48-5.26-4.92-7.28-16.33-8.06-24.8-2.38,11.93-7.43,30.48-16.12,33.16-12.13,3.74-94.14,10.68-97.63,10.97-.03,0-.06,0-.09,0Z"/><path class="p" d="M770.09,630.93c-8.64,0-18.73-.96-27-4.44-9.04-3.8-13.46-7.71-17.74-11.49-4.23-3.74-8.23-7.27-16.59-10.24-1.59-.56-3.09-1.07-4.52-1.56-14.07-4.77-21.81-7.4-47.83-37.88-14.92-17.48-19.31-33.78-20.36-44.38-1.15-11.54,1.24-18.86,1.34-19.17,.19-.57,.8-.88,1.38-.69,.57,.19,.88,.81,.69,1.38-.09,.29-9.14,28.92,18.61,61.44,25.63,30.02,33.18,32.59,46.88,37.24,1.44,.49,2.95,1,4.55,1.57,8.76,3.11,12.91,6.78,17.31,10.66,4.14,3.66,8.43,7.45,17.14,11.11,17.54,7.38,44.69,2.87,44.96,2.82,.59-.1,1.15,.3,1.26,.89,.1,.59-.3,1.15-.89,1.26-.62,.11-8.87,1.48-19.18,1.48Z"/><path class="p" d="M778.33,553.75c-.09,0-.17-.01-.26-.03-.81-.2-19.94-4.95-27.02-8.22-4.39-2.03-5.87-4.74-7.44-7.62-1.1-2.01-2.23-4.08-4.52-6.15-3.01-2.72-7.21-2.46-11.27-2.21-3.15,.2-6.12,.38-8.68-.7l-52.9-22.36,.85-2.01,52.9,22.36c2.08,.88,4.81,.71,7.7,.53,4.3-.27,9.17-.57,12.86,2.77,2.56,2.32,3.84,4.66,4.97,6.72,1.45,2.66,2.71,4.96,6.44,6.68,6.15,2.84,22.36,7.01,25.93,7.91,3.99-5.35,32.05-42.48,48.83-51.94,.52-.29,1.19-.11,1.48,.41,.3,.52,.11,1.19-.41,1.48-17.31,9.76-48.27,51.51-48.58,51.93-.21,.28-.54,.44-.88,.44Z"/><path class="p" d="M769.76,545.6c-.11,0-.23-.02-.35-.06-.57-.19-.88-.81-.69-1.38,.06-.19,6.31-19.16,2.06-34.19-4.31-15.25-22.06-48.34-22.24-48.67-.28-.53-.09-1.19,.44-1.47,.53-.29,1.19-.09,1.47,.44,.73,1.37,18.04,33.64,22.42,49.11,4.43,15.68-1.82,34.67-2.09,35.47-.15,.46-.58,.74-1.03,.74Z"/><path class="p" d="M858.05,588.8c-.24,0-.48-.08-.68-.24-.47-.37-.55-1.06-.17-1.53,.24-.3,23.88-30.08,29.44-41.11,5.56-11.04,12.21-33.04,12.28-33.26,.17-.58,.78-.9,1.36-.73,.58,.17,.9,.78,.73,1.36-.07,.22-6.78,22.4-12.42,33.61-5.65,11.23-28.7,40.25-29.68,41.48-.21,.27-.53,.41-.85,.41Z"/><path class="p" d="M767.31,606.12c-.52,0-1-.21-1.36-.6-3.75-4.04,7.74-41.74,11.35-53.19,.18-.57,.79-.89,1.37-.71,.57,.18,.89,.79,.71,1.37-9.11,28.91-13.15,48.31-11.91,50.91,3.97-1.22,8.12-12.07,9.82-18.73,.15-.58,.74-.94,1.32-.78,.58,.15,.93,.74,.78,1.32-.49,1.92-4.99,18.8-11.6,20.35-.16,.04-.32,.06-.48,.06Zm.24-2.07h0Z"/><path class="p" d="M793.92,599.94c-.47,0-.91-.31-1.04-.78l-12.26-42.02c-.17-.58,.16-1.18,.74-1.35,.58-.17,1.18,.16,1.35,.74l12.26,42.02c.17,.58-.16,1.18-.74,1.35-.1,.03-.2,.04-.31,.04Z"/><path class="p" d="M717.81,690.69h-.02c-.6,0-1.08-.5-1.07-1.11l1.31-80.97c0-.6,.5-1.07,1.09-1.07h.02c.6,.01,1.08,.51,1.07,1.11l-1.31,80.97c0,.59-.5,1.07-1.09,1.07Z"/><path class="p" d="M658.83,704.95c-2.31,0-4.56-.55-6.72-1.66-9.46-4.85-14.15-18.65-14.78-23.14-.08-.6,.33-1.15,.93-1.23,.6-.09,1.15,.33,1.23,.93,.57,4.02,5.03,17.11,13.62,21.51,4.01,2.06,8.4,1.86,13.05-.58,15.51-8.14,13.3-43.61,12.73-50.41l-43.42,6.44c-.59,.09-1.15-.32-1.24-.92-.09-.59,.32-1.15,.92-1.24l44.56-6.61c.29-.04,.59,.03,.83,.21,.23,.18,.38,.45,.42,.74,.01,.11,1.19,11.05,.13,22.99-1.44,16.29-6.12,26.62-13.91,30.71-2.86,1.5-5.65,2.25-8.34,2.25Z"/><path class="p" d="M767.6,693.5c-1.99,0-3.29-.51-3.36-.54-.56-.22-.83-.86-.61-1.42,.22-.56,.85-.83,1.42-.61,.3,.11,7.45,2.74,13.9-7.19,6.13-9.43,1.02-31.32,.02-35.27l-27.62-6.73c-.58-.14-.94-.73-.8-1.32,.14-.58,.73-.94,1.32-.8l28.26,6.88c.38,.09,.69,.39,.79,.77,.29,1.08,7.11,26.5-.14,37.65-3.86,5.94-8.1,7.82-10.97,8.36-.8,.15-1.54,.21-2.2,.21Z"/><path class="p" d="M755.22,685.07c-.34,0-.68-.16-.89-.46-6.3-8.89-5.32-35.93-5.27-37.08,.02-.6,.54-1.09,1.13-1.05,.6,.02,1.07,.53,1.05,1.13-.01,.27-1,27.44,4.87,35.74,.35,.49,.23,1.17-.26,1.52-.19,.14-.41,.2-.63,.2Z"/><path class="aw" d="M1229,591.24c-.6,0-1.09-.49-1.09-1.09-.05-19.93-34.07-29.35-34.41-29.44l-.12-.04-98.75-39.2c-.56-.22-.83-.85-.61-1.41,.22-.56,.85-.83,1.41-.61l98.69,39.18c.87,.24,9.25,2.61,17.78,7.45,11.87,6.74,18.16,15.06,18.18,24.07,0,.6-.48,1.09-1.09,1.09h0Z"/><path class="aw" d="M1105.34,612.22c-.2,0-.4-.05-.58-.17-35.32-22.5-81.06-82.98-81.52-83.59-.36-.48-.27-1.16,.21-1.52,.48-.36,1.16-.26,1.52,.21,.46,.61,45.97,60.78,80.95,83.07,.51,.32,.66,1,.33,1.5-.21,.33-.56,.5-.92,.5Z"/></g></g><g id="e"><path class="y" d="M826.88,1197.83l-2.11-3.69c10.25-5.87,14.81-15.18,11.9-24.3-2.77-8.67-13.1-16.67-29.94-14.99l-.42-4.23c19.2-1.92,31.12,7.62,34.41,17.93,3.51,10.97-1.92,22.47-13.84,29.28Z"/><path class="n" d="M788.82,1150.47h19.02c1.49,0,2.7,1.21,2.7,2.7v8.16c0,1.49-1.21,2.7-2.7,2.7h-19.02c-1.49,0-2.7-1.21-2.7-2.7v-8.16c0-1.49,1.21-2.7,2.7-2.7Z"/><path class="a`" d="M804.74,1164.03h3.11c1.48,0,2.69-1.21,2.69-2.7v-8.16c0-1.48-1.21-2.7-2.69-2.7h-3.11v13.55Z"/><path class="bj" d="M810.54,1161.57h-24.42l-18.69,9.77c-.74,.37-1.21,1.16-1.21,2.03v2.17h64.2v-2.19c0-.86-.46-1.64-1.18-2.02l-18.72-9.76Z"/><path class="bl" d="M810.54,1161.57h-5.8l18.29,13.97h7.4v-2.19c0-.86-.46-1.64-1.18-2.02l-18.72-9.76Z"/><path class="bj" d="M828.16,1183.77h-59.65c-1.71-.4,1.74,4.85-1.49,12.7-3.53,8.6-4.4,7.8-4.61,12.64h71.72c-.44-5.92-1.75-4.18-5.1-13.19-2.64-7.09,.63-12.14-.87-12.15Z"/><path class="bl" d="M828.16,1183.77h-5.12c-6.27,5.99-1.91,13.67,2.85,22.05h8.25c-.44-5.15-1.75-3.63-5.1-11.48-2.64-6.17,.63-10.56-.87-10.57Z"/><path class="am" d="M776.68,1195.01h43.31c7.91,0,14.33,6.42,14.33,14.33v97.93c0,7.91-6.42,14.33-14.33,14.33h-43.31c-7.91,0-14.33-6.42-14.33-14.33v-97.93c0-7.91,6.42-14.33,14.33-14.33Z"/><g><rect class="am" x="766.24" y="1171.22" width="64.19" height="13.55" rx="2.7" ry="2.7"/><rect class="ak" x="770.64" y="1171.22" width="1.42" height="13.55"/><rect class="ak" x="773.33" y="1171.22" width="1.42" height="13.55"/><rect class="ak" x="775.74" y="1171.22" width="1.42" height="13.55"/><rect class="ak" x="778.44" y="1171.22" width="1.42" height="13.55"/><rect class="ak" x="781.13" y="1171.22" width="1.42" height="13.55"/><rect class="ak" x="783.83" y="1171.22" width="1.42" height="13.55"/><rect class="ak" x="786.53" y="1171.22" width="1.42" height="13.55"/><rect class="ak" x="789.23" y="1171.22" width="1.42" height="13.55"/><rect class="ak" x="791.93" y="1171.22" width="1.42" height="13.55"/><rect class="ak" x="794.63" y="1171.22" width="1.42" height="13.55"/><rect class="ak" x="797.32" y="1171.22" width="1.42" height="13.55"/><rect class="ak" x="800.02" y="1171.22" width="1.42" height="13.55"/><rect class="ak" x="802.72" y="1171.22" width="1.42" height="13.55"/><rect class="ak" x="805.42" y="1171.22" width="1.42" height="13.55"/><rect class="ak" x="808.12" y="1171.22" width="1.42" height="13.55"/><rect class="ak" x="810.82" y="1171.22" width="1.42" height="13.55"/><rect class="ak" x="813.51" y="1171.22" width="1.42" height="13.55"/><rect class="ak" x="816.21" y="1171.22" width="1.42" height="13.55"/><rect class="ak" x="818.91" y="1171.22" width="1.42" height="13.55"/><rect class="ak" x="821.61" y="1171.22" width="1.42" height="13.55"/><rect class="ak" x="824.31" y="1171.22" width="1.42" height="13.55"/><path class="al" d="M827.01,1171.22c.48,0,.96,.09,1.42,.25v13.06c-.54,.2-1.03,.25-1.42,.25v-13.55Z"/><path class="al" d="M829.7,1172.25c.43,.47,.67,.96,.71,1.49v8.42c0,.6-.29,1.11-.71,1.6v-11.5Z"/><path class="al" d="M769.66,1171.22c-.48,0-.96,.09-1.42,.25v13.06c.54,.2,1.03,.25,1.42,.25v-13.55Z"/><path class="al" d="M766.96,1172.25c-.43,.47-.67,.96-.71,1.49v8.42c0,.6,.29,1.11,.71,1.6v-11.5Z"/></g><path class="al" d="M816.33,1321.6c12.58,1.09,17.99-5.87,17.99-11.29v-104c0-5.43-4.89-9.99-11.39-11.05,2.8,1.41,4,4.27,3.6,8.55v97.87c1.62,11.89-2.57,19.48-10.2,19.93Z"/><path class="bm" d="M770.13,1202.5h0c1.78,0,3.24,1.46,3.24,3.24v105.13c0,1.78-1.46,3.24-3.24,3.24h0c-1.78,0-3.24-1.46-3.24-3.24v-105.13c0-1.78,1.46-3.24,3.24-3.24Z"/><path class="ba" d="M819.92,1184.77h7.09c1.88,0,3.42-1.21,3.42-2.7v-8.16c0-1.48-1.54-2.7-3.42-2.7h-7.09v13.55Z"/><rect class="bo" x="769.19" y="1171.96" width="3.95" height="11.47" rx="1.98" ry="1.98"/><rect class="w" x="788.09" y="1151.57" width="3.95" height="8.1" rx="1.98" ry="1.98"/></g><g id="f"><path class="bf" d="M709.15,1351.41c17.3,0,31.41-3.44,31.41-7.66s-14.11-7.66-31.41-7.66-31.41,3.44-31.41,7.66,14.11,7.66,31.41,7.66Z"/><path class="ao" d="M719.1,1183.7c2.19-.76,3.6-2.94,4.23-6.52,.88,4.3,1.34,9.02,1.37,14.17-.51-.15-1.07,.04-1.68,.09l-28.07-.24c-.56-.03-1.01,.02-1.37,.15,.03-5.14,.49-9.87,1.37-14.17,.47,5.1,2.89,7.32,8.87,8.26,6.75,.54,12.38,.5,15.28-1.74Z"/><path class="at" d="M707.64,1186.32h3.01c12.11,.16,14.05-4.34,11.99-13.45-1-4.41-2.19-9.35-7.58-9.35h-11.83c-5.4,0-6.58,4.94-7.58,9.35-2.06,9.07-.12,13.61,11.99,13.45h0Zm1.51-16.46c4.35,0,7.87,3.52,7.87,7.87s-3.52,7.87-7.87,7.87-7.87-3.52-7.87-7.87,3.52-7.87,7.87-7.87Z"/><path class="be" d="M696.48,1179.86c-.26,1.75,1.89,3.48,2.99,4.06,6.09,3.23-2.35-8.33-2.99-4.06Z"/><path class="bg" d="M743.09,1219.65v117.02h-.05c.03,.34,.05,.68,.05,1.02h0c0,5.7-4.91,10.37-10.9,10.37h-46.08c-6,0-10.9-4.67-10.9-10.37h0c0-.34,.02-.68,.05-1.02h-.05v-117.02c1.38-12.39,13.93-12.79,19.44-20.2v-4.1c-2.5-2.26-2.81-4.15,0-4.15h29.02c2.81,0,2.5,1.89,0,4.15v4.1c5.51,7.41,18.06,7.81,19.44,20.2Z"/><path class="bf" d="M695.54,1195.79c-.58-.15-1.09-.61,0-.63h27.58c.41,0,.17,.51-.22,.51-9.12,1.6-18.24,1.8-27.36,.12Z"/><path class="bf" d="M722.31,1202.52c13.07,7.58,14.35,20.99,13.42,34.99-3.02,45.15,9.16,115.27-52.27,110.24,12.33,.08,22.26,3.54,29.77,3.59,11.71,.08,17.57-3.28,17.57-3.28,2.91,.37,5.84-.44,8.14-2.24,2.31-1.81,3.79-4.46,4.12-7.37,.04-39.09,.04-78.18,0-117.27,.34-4.36-1.7-8.38-6.1-12.07-1.74-1.28-3.86-2.62-6.36-4.02-3.61-2.19-5.92-4.06-6.95-5.64v-4.1c-1.68,2.47-2.13,4.86-1.34,7.17Z"/><path class="bk" d="M695,1201.95c.38-.45,1.06-.51,1.51-.13,.45,.38,.51,1.06,.13,1.51-23.07,27.47-13.38,124.72-16.12,122.11-1.48-1.41-2.59-29.75-2.56-31.4v-66.57h0v-.55c-.12-21.15,6.86-12.85,17.03-24.97Z"/><path class="bk" d="M727.01,1211.78c-5.3,1.03-10.68,1.55-16.06,1.55s-10.76-.51-16.06-1.55c-1.39-.27-2.17,2.46-.78,2.73,21.61,4.2,34.17-2.97,32.9-2.73Z"/><path class="bk" d="M694.58,1193.25c1.01,1.27,4.39,1.36,5.9,1.21,8.35-.82-8.37-4.3-5.9-1.21Z"/></g><g><g><path class="ae" d="M456.02,1135.75s-7.23,23.3,2.41,62.65c0,0,4.22,26.51-2.5,41.36-6.73,14.86-33.64,87.15,13.35,91.56l10.84-35.74s-28.16,1.52-18.1-27.75c10.07-29.27,15.29-29.27,13.68-41.32-1.61-12.05-10.44-69.88,2.41-86.34l-22.09-4.42Z"/><path class="s" d="M491.02,1166.27s-16.53-22.49-36.59-24.9c0,0-3.23-5.62,0-8.03,3.24-2.41,22.9-4.82,29.53-4.82s27.35,18.68,27.35,18.68l-20.3,19.07Z"/><path class="aj" d="M511.43,1357.43s9.65,24.1,49.81,23.29c40.16-.8,51.4-10.01,68.27-7.62,16.86,2.38,47.39-5.63,51.4-10.86,4.01-5.23,14.46-55.03,0-85.55-14.46-30.52-20.08-57.83-20.88-74.7-.8-16.87-16.11-110.42-49.04-113.63-32.93-3.22-50.83-8.12-81.92,26.12-31.1,34.25-17.64,141.74-17.64,141.74v101.2Z"/><path class="av" d="M623.86,1355.03c.06,1.33-.96,2.46-2.29,2.52l-23.07,1.11c-1.33,.06-2.46-.97-2.52-2.29l-.37-7.82c-.06-1.32,.96-2.46,2.29-2.52l23.07-1.1c1.33-.06,2.46,.96,2.52,2.29l.38,7.82Z"/><path class="au" d="M618.9,1353.74c.02,.46-.59,.87-1.37,.91l-13.5,.64c-.78,.04-1.43-.31-1.45-.77l-.13-2.73c-.02-.46,.59-.87,1.37-.9l13.5-.65c.78-.04,1.43,.31,1.45,.77l.13,2.73Z"/><path class="ai" d="M660.96,1212.11c-.48-3.68-.79-7.07-.93-10.11-.8-16.87-16.11-110.42-49.04-113.63-32.93-3.22-50.83-8.12-81.92,26.12-2.04,2.25-6.77-2.93-10.57,4.61,25.78,7.53,27.38,28.11,26.78,82.82-.42,37.77,67.37,11.65,67.37,11.65,22.59,5.6,38.28,2.76,48.32-1.45Z"/><path class="ai" d="M544.07,1287.15s-3.31,23.79,3.61,33.43c6.93,9.64,29.5,14.16,50.74,13.85,21.24-.3,40.52-15.86,71.84-11.74,6.6,.86,12.07,5.83,17.88,1.12,.59-12.76-.27-26.77-4.09-38.95-.52-1.22-.84-1.93-.84-1.93l-139.15,4.22Z"/><path class="ag" d="M575.38,1086.44s-45.97,2.52-67.2,34.47c-15.71,23.64-27.26,61.42-19.23,128.09,0,0-32.93,65.37-26.51,86.9,6.43,21.53,61.04,40.81,72.29,40,0,0-29.72-64.25-14.46-107.62,0,0-2.16-32.54-2.45-44.38-3.17-129.13,30.86-126.8,57.56-137.46Z"/><path class="af" d="M483.94,1259.47s5.01,3.43,30.31,4.49c0,0-41.04,11.2-30.31-4.49Z"/><path class="aj" d="M520.28,1268.28s-.3-4.32-6.02-4.32-34.29,3.9-30.31-4.49c0,0-5.54-1.64-8.55,8.8-3.01,10.44-4.82,17.67-7.83,21.89-3.01,4.22-9.44,12.63-2.31,17.76,7.13,5.13,30.62,14.83,38.15,8.5,7.53-6.32,10.24-26.97,16.87-48.15Z"/><path class="aa" d="M673.28,1222.1s26.51,30.12,21.69,82.53c0,0-3.72,5.4-6.68,9.02-2.96,3.62,1.26,3.6-42.71,0,0,0-29.84-.59-47.15,8.44-17.31,9.04-48.63-4.22-57.67-21.69,0,0-2.75-61.39,24.7-71.69,19.28-7.23,59.04-13.25,107.83-6.62Z"/><path class="aj" d="M694.97,1304.62c3.17-34.52-7.24-59.37-14.72-72.31-19.9-2.38-72.02-6.52-104.86,10.26,0,0-21.2,47.11-9.32,64.46,0,0,18.96,12.7,32.37,11.47,13.41-1.23,40.52-15.08,67.02-8.46,14.03,3.51,20.96,2.29,25.55,.1,2.12-2.84,3.97-5.52,3.97-5.52Z"/><path class="av" d="M620.55,1268.71c.06,1.33-1.04,2.46-2.46,2.53l-24.64,1.18c-1.42,.07-2.62-.96-2.69-2.29l-.37-7.82c-.06-1.33,1.04-2.46,2.46-2.53l24.64-1.18c1.42-.07,2.62,.95,2.69,2.28l.38,7.82Z"/><path class="au" d="M615.26,1267.44c.02,.46-.63,.87-1.47,.91l-14.42,.69c-.83,.04-1.52-.3-1.54-.77l-.13-2.73c-.02-.46,.63-.87,1.47-.91l14.42-.69c.83-.04,1.52,.3,1.55,.76l.13,2.73Z"/><path class="av" d="M670.8,1266.36c.06,1.33-1.04,2.46-2.46,2.53l-24.64,1.18c-1.42,.07-2.62-.96-2.69-2.29l-.38-7.82c-.06-1.32,1.04-2.46,2.46-2.53l24.64-1.18c1.42-.07,2.62,.96,2.68,2.29l.38,7.82Z"/><path class="au" d="M665.51,1265.08c.02,.46-.63,.87-1.47,.91l-14.42,.69c-.83,.04-1.52-.31-1.55-.77l-.13-2.73c-.02-.47,.64-.87,1.47-.91l14.42-.69c.83-.04,1.52,.3,1.54,.77l.13,2.73Z"/><path class="s" d="M505.82,1124.64s33.73-20.21,42.57,5.49c8.83,25.7,2.41,69.07,14.06,79.52,11.64,10.44,42.85-3.21,53.35-4.02,0,0,51.4,8.96,51.46-14.46,.08-30.52-13.53-89.3-33.41-99.88-19.88-10.58-75.02-20.6-119.59,9.92,0,0-15.67,9.9-8.43,23.42Z"/><path class="ae" d="M598.43,1266.97s18.12,38.8,4.87,85.79l14.82-.55s12.74-45.82-3.27-86.74l-16.43,1.51Z"/><path class="av" d="M673.54,1352.15c.06,1.33-.96,2.46-2.29,2.52l-23.06,1.1c-1.33,.06-2.46-.96-2.52-2.29l-.37-7.82c-.06-1.33,.96-2.46,2.29-2.52l23.07-1.11c1.33-.06,2.46,.97,2.52,2.29l.38,7.82Z"/><path class="au" d="M668.58,1350.86c.02,.46-.59,.87-1.37,.91l-13.5,.64c-.78,.04-1.43-.31-1.45-.77l-.13-2.73c-.02-.46,.59-.87,1.37-.91l13.5-.65c.78-.04,1.43,.31,1.45,.77l.13,2.73Z"/><path class="ac" d="M582.02,1245.15l-2.71,10.68s71.35-6.87,110.37-2.08c0,0-.54-9.13-5-12.86,0,0-49.04-5.51-102.66,4.26Z"/><path class="ar" d="M688.49,1247.42c-.31-1-.69-2.03-1.17-2.99-40.28-6.57-101.74,3.16-101.74,3.16v3.13c60.58-8.47,87.85-3.86,102.91-3.29Z"/><path class="ad" d="M687.05,1246.43s-4.14-.26-5.34,.58c0,0,.46,16.5,1.36,18.91,0,0,8.4,1.05,12.48-2.11l-8.5-17.39Zm-.82,14.2c-.45-1.38-1.06-8.72-1.06-8.72l1.96-.45,3.92,9.17s-4.37,1.38-4.82,0Z"/><path class="ah" d="M579.31,1102.82c18.1-1.08,46.67-4.95,65.45-.31-3.36-5.2-7.02-9.14-10.92-11.22-19.88-10.58-75.02-20.6-119.59,9.92,0,0-15.67,9.9-8.43,23.42,0,0,18.47-11.05,31.65-6.39,5.17-4.5,18.71-14.05,41.84-15.43Z"/><path class="ac" d="M565.66,1164.86v9.65s59.64-13.46,99.13-10.47l-2.01-11.32s-37.08-2.11-97.12,12.14Z"/><path class="ar" d="M664.16,1160.49l-.53-3c-10.56-.44-49.56-1.1-94.55,10.19v2.61s48.24-11.91,95.09-9.8Z"/></g><path class="ad" d="M664.75,1157.33s-4.14-.26-5.34,.58c0,0,.46,16.5,1.36,18.91,0,0,8.4,1.06,12.48-2.11l-8.5-17.39Zm-.82,14.2c-.45-1.38-1.05-8.71-1.05-8.71l1.96-.45,3.91,9.16s-4.37,1.38-4.82,0Z"/><path class="k" d="M667.24,1191.53c0-.12,.02-.24,.02-.36,0-1.48-.03-3.04-.09-4.65-5.34,9.04-39.04,8.33-51.8,7.27l-.35-.03-.34,.1c-17.87,5.59-38.82,10.51-41.51,8.72-10.15-7.65-11.37-28.21-12.65-49.97-1.06-17.87-2.15-36.34-8.52-48.81-3.29-6.43-8.05-10.25-14.16-11.37-2.72-.5-5.55-.41-8.39,.07-5.16,2.45-10.25,5.32-15.21,8.71,0,0-2.84,1.8-5.55,4.91,7.32-5.19,18.97-11.88,28.5-10.14,5,.92,8.79,4.01,11.58,9.46,6.02,11.79,7.09,29.88,8.13,47.37,1.33,22.62,2.59,43.98,14.08,52.64,.86,.65,2.45,.93,4.55,.93,10.11,0,31.93-6.5,39.88-8.98,5.72,.46,39.8,2.78,51.82-5.89Z"/><path class="ab" d="M605.67,1352.68c10.6-45.52-.69-76.6-4.89-85.92l-2.35,.22s18.12,38.8,4.87,85.79l2.37-.09Z"/><path class="ae" d="M648.11,1264.66s18.12,38.81,4.87,85.79l14.82-.55s12.74-45.82-3.27-86.74l-16.42,1.5Z"/><path class="ab" d="M655.35,1350.37c10.6-45.52-.7-76.6-4.89-85.92l-2.35,.21s18.12,38.81,4.87,85.79l2.37-.09Z"/></g><g id="g"><rect x="765.83" y="1207.3" width="21.97" height="14"/><rect class="as" x="764.55" y="1201.32" width="24.52" height="5.98"/><rect class="ax" x="784.84" y="1201.32" width="4.24" height="5.98"/><path class="ao" d="M745.28,1218.24c-6.47,3.56-11.36,6.13-14.66,8.43-.7-4.9-.07-8.01,1.88-9.34,2.87-1.73,4.95-2.97,6.23-3.75,1.11-.67,1.45-1.11,2.76-1.05,.25,.01,.48,.05,.71,.11,4.5-4.4,15.24-12.48,20.84-12.73h28.41c.78,0,1.42,.63,1.42,1.41s-.63,1.42-1.42,1.42c-8.45,0-18.49-.92-26.47-.14-7.47,.73-14.83,9.79-19.7,15.08,0,.19,0,.38-.01,.57Z"/><path class="bd" d="M750.48,1386.02h29.05c8.68,0,15.45-7.1,15.77-15.77l4.8-126.77c.33-8.67-7.1-15.77-15.77-15.77h-40.75c-8.68,0-16.25,7.11-15.77,15.77l6.9,126.77c.47,8.66,7.1,15.77,15.77,15.77Z"/><path class="bi" d="M779.53,1386.02c8.68,0,15.45-7.1,15.77-15.77l4.8-126.77c.16-4.25-1.55-8.13-4.35-10.97h-12.03l-4.2,153.52Z"/><rect class="an" x="726.18" y="1226.95" width="75.54" height="16.5" rx="3.6" ry="3.6"/><path class="bb" d="M783.35,1226.95h14.77c1.98,0,3.6,1.62,3.6,3.6v9.3c0,1.98-1.62,3.6-3.6,3.6h-14.77v-16.5Z"/><path class="at" d="M727.79,1227.71h72.32c-20.83-18.66-51.5-18.66-72.32,0Z"/><path class="bc" d="M733.76,1252.96c-.08-1.56,1.12-2.89,2.68-2.97,1.56-.08,2.89,1.12,2.97,2.68l6.43,118.13c.08,1.56-1.12,2.89-2.68,2.97-1.56,.08-2.89-1.12-2.97-2.68l-6.43-118.13Z"/><rect class="as" x="730.1" y="1229.71" width="7.32" height="11.95" rx="1.6" ry="1.6"/><path class="ay" d="M800.11,1227.71h-16.77c-2.2-6.32-9.29-10.98-21.29-13.96,14.02-.47,27.67,4.54,38.06,13.96Z"/><path class="bh" d="M738.34,1226.1c-.59,.51-1.49,.44-1.99-.16s-.44-1.49,.15-1.99c2.91-2.48,6.2-4.42,9.86-5.81h0c3.65-1.39,7.66-2.24,12.05-2.55,.78-.06,1.46,.53,1.51,1.31s-.53,1.46-1.31,1.51c-4.11,.29-7.86,1.08-11.25,2.37-3.37,1.28-6.38,3.05-9.03,5.32Z"/></g></g></g></svg>